# xmcd
#
# Track frame offsets: 
#        150
#        20432
#        36443
#        60362
#        79470
#        93410
#        114662
#        131019
#        148894
#        163669
#        178986
#        200853
#        226081
#        243213
#        260785
#        275121
#        291084
#        305414
#        322178
#
# Disc length: 4529 seconds
#
# Revision: 0
# Processed by: cddbd v1.5.2PL0 Copyright (c) Steve Scherf et al.
# Submitted via: ExactAudioCopy v0.95b4
#
DISCID=2a11af13
DTITLE=Various Artist - So Country
DYEAR=2008
DGENRE=Country
TTITLE0=Last Dollar (Fly Away) - Tim McGraw
TTITLE1=Like Red On A Rose - Alan Jackson
TTITLE2=Are You Alright? - Lucinda Williams
TTITLE3=Between The Daylight And The Dark - Mary Gauthier
TTITLE4=Change Of Heart - Teddy Thompson
TTITLE5=Another Country - Tift Merritt
TTITLE6=It Ain't No Crime - Joe Nichols
TTITLE7=Walk Of Life - Shooter Jennings
TTITLE8=Stronger - Melinda Schneider
TTITLE9=Joyride - Jennifer Hanson
TTITLE10=Hell Yeah - Montgomery Gentry
TTITLE11=Born To Fly - Sara Evans
TTITLE12=Kiss Me In The Dark - Randy Rogers Band
TTITLE13=Big Skies - Morgan Evans
TTITLE14=Takin' Off This Pain - Ashton Shepherd
TTITLE15=These Are My People - Rodney Atkins
TTITLE16=Gunpowder and Lead - Miranda Lambert
TTITLE17=Red High Heels - Kellie Pickler
TTITLE18=The One In The Middle - Sarah Johns
EXTD=
EXTT0=
EXTT1=
EXTT2=
EXTT3=
EXTT4=
EXTT5=
EXTT6=
EXTT7=
EXTT8=
EXTT9=
EXTT10=
EXTT11=
EXTT12=
EXTT13=
EXTT14=
EXTT15=
EXTT16=
EXTT17=
EXTT18=
PLAYORDER=
